{
    "asset" : {
        "version" : "2.0"
    },
    "scene" : 0,
    "scenes" : [
        {
            "name" : "Scene",
            "nodes" : [
                0,
                1
            ]
        }
    ],
    "nodes" : [
        {
            "mesh" : 0,
            "name" : "node_double",
            "rotation" : [
                0.7071068286895752,
                0,
                0,
                0.7071067094802856
            ]
        },
        {
            "mesh" : 1,
            "name" : "node_single",
            "rotation" : [
                0.7071068286895752,
                0,
                0,
                0.7071067094802856
            ],
            "translation" : [
                -2.5,
                0,
                0
            ]
        }
    ],
    "materials" : [
        {
            "doubleSided" : true,
            "name" : "mat_double",
            "pbrMetallicRoughness" : {
                "baseColorFactor" : [
                    0.070,
                    0.590,
                    0.800,
                    1
                ],
                "metallicFactor" : 0,
                "roughnessFactor" : 0
            }
        },
        {
            "name" : "mat_single",
            "pbrMetallicRoughness" : {
                "baseColorFactor" : [
                    0.070,
                    0.800,
                    0.059,
                    1
                ],
                "metallicFactor" : 0,
                "roughnessFactor" : 0
            }
        }
    ],
    "meshes" : [
        {
            "name" : "mesh_double",
            "primitives" : [
                {
                    "attributes" : {
                        "POSITION" : 0,
                        "NORMAL" : 1
                    },
                    "indices" : 2,
                    "material" : 0
                }
            ]
        },
        {
            "name" : "mesh_single",
            "primitives" : [
                {
                    "attributes" : {
                        "POSITION" : 3,
                        "NORMAL" : 4
                    },
                    "indices" : 2,
                    "material" : 1
                }
            ]
        }
    ],
    "accessors" : [
        {
            "bufferView" : 0,
            "componentType" : 5126,
            "count" : 450,
            "max" : [
                1,
                0.9999999403953552,
                0.9432085752487183
            ],
            "min" : [
                -0.9999999403953552,
                -0.9999999403953552,
                -0.9432088136672974
            ],
            "type" : "VEC3"
        },
        {
            "bufferView" : 1,
            "componentType" : 5126,
            "count" : 450,
            "type" : "VEC3"
        },
        {
            "bufferView" : 2,
            "componentType" : 5123,
            "count" : 2220,
            "type" : "SCALAR"
        },
        {
            "bufferView" : 3,
            "componentType" : 5126,
            "count" : 450,
            "max" : [
                1,
                0.9999999403953552,
                0.9432085752487183
            ],
            "min" : [
                -0.9999999403953552,
                -0.9999999403953552,
                -0.9432088136672974
            ],
            "type" : "VEC3"
        },
        {
            "bufferView" : 4,
            "componentType" : 5126,
            "count" : 450,
            "type" : "VEC3"
        }
    ],
    "bufferViews" : [
        {
            "buffer" : 0,
            "byteLength" : 5400,
            "byteOffset" : 0
        },
        {
            "buffer" : 0,
            "byteLength" : 5400,
            "byteOffset" : 5400
        },
        {
            "buffer" : 0,
            "byteLength" : 4440,
            "byteOffset" : 10800
        },
        {
            "buffer" : 0,
            "byteLength" : 5400,
            "byteOffset" : 15240
        },
        {
            "buffer" : 0,
            "byteLength" : 5400,
            "byteOffset" : 20640
        }
    ],
    "buffers" : [
        {
            "byteLength" : 26040,
            "uri" : "01_single_vs_double_sided.bin"
        }
    ]
}
