{
    "asset" : {
        "generator" : "Khronos glTF Blender I/O v3.5.11",
        "version" : "2.0"
    },
    "extensionsUsed" : [
        "KHR_materials_clearcoat",
        "KHR_materials_transmission",
        "KHR_materials_volume",
        "KHR_materials_specular",
        "KHR_materials_sheen",
        "KHR_materials_ior"
    ],
    "scene" : 0,
    "scenes" : [
        {
            "name" : "Scene",
            "nodes" : [
                0
            ]
        }
    ],
    "nodes" : [
        {
            "mesh" : 0,
            "name" : "Cube"
        }
    ],
    "materials" : [
        {
            "alphaMode" : "BLEND",
            "doubleSided" : true,
            "emissiveFactor" : [
                0.4000000059604645,
                0.5,
                0.6000000238418579
            ],
            "emissiveTexture" : {
                "index" : 0
            },
            "extensions" : {
                "KHR_materials_clearcoat" : {
                    "clearcoatFactor" : 0.23399999737739563,
                    "clearcoatRoughnessFactor" : 0.3449999988079071,
                    "clearcoatTexture" : {
                        "index" : 1
                    },
                    "clearcoatRoughnessTexture" : {
                        "index" : 1
                    }
                },
                "KHR_materials_transmission" : {
                    "transmissionFactor" : 0.36000001430511475
                },
                "KHR_materials_volume" : {
                    "attenuationColor" : [
                        0.800000011920929,
                        0.800000011920929,
                        0.800000011920929
                    ],
                    "attenuationDistance" : 1,
                    "thicknessFactor" : 0.8999999761581421,
                    "thicknessTexture" : {
                        "index" : 2
                    }
                },
                "KHR_materials_specular" : {
                    "specularFactor" : 0.25,
                    "specularTexture" : {
                        "index" : 3
                    },
                    "specularColorFactor" : [
                        0.699999988079071,
                        0.6000000238418579,
                        0.5
                    ],
                    "specularColorTexture" : {
                        "index" : 4
                    }
                },
                "KHR_materials_sheen" : {
                    "sheenColorFactor" : [
                        0.10000000149011612,
                        0.20000000298023224,
                        0.30000001192092896
                    ],
                    "sheenColorTexture" : {
                        "index" : 5
                    },
                    "sheenRoughnessFactor" : 0.5,
                    "sheenRoughnessTexture" : {
                        "index" : 6
                    }
                },
                "KHR_materials_ior" : {
                    "ior" : 1.4500000476837158
                }
            },
            "name" : "Material",
            "occlusionTexture" : {
                "index" : 7
            },
            "pbrMetallicRoughness" : {
                "baseColorFactor" : [
                    0.5,
                    0.6000000238418579,
                    0.699999988079071,
                    0.12300000339746475
                ],
                "baseColorTexture" : {
                    "index" : 8
                },
                "metallicFactor" : 0.20000000298023224,
                "metallicRoughnessTexture" : {
                    "index" : 7
                },
                "roughnessFactor" : 0.30000001192092896
            }
        }
    ],
    "meshes" : [
        {
            "name" : "Cube",
            "primitives" : [
                {
                    "attributes" : {
                        "POSITION" : 0,
                        "TEXCOORD_0" : 1,
                        "NORMAL" : 2
                    },
                    "indices" : 3,
                    "material" : 0
                }
            ]
        }
    ],
    "textures" : [
        {
            "sampler" : 0,
            "source" : 0
        },
        {
            "sampler" : 0,
            "source" : 0
        },
        {
            "sampler" : 0,
            "source" : 0
        },
        {
            "sampler" : 0,
            "source" : 0
        },
        {
            "sampler" : 0,
            "source" : 0
        },
        {
            "sampler" : 0,
            "source" : 0
        },
        {
            "sampler" : 0,
            "source" : 0
        },
        {
            "sampler" : 0,
            "source" : 0
        },
        {
            "sampler" : 0,
            "source" : 0
        }
    ],
    "images" : [
        {
            "mimeType" : "image/png",
            "name" : "Untitled",
            "uri" : "Untitled.png"
        }
    ],
    "accessors" : [
        {
            "bufferView" : 0,
            "componentType" : 5126,
            "count" : 24,
            "max" : [
                1,
                1,
                1
            ],
            "min" : [
                -1,
                -1,
                -1
            ],
            "type" : "VEC3"
        },
        {
            "bufferView" : 1,
            "componentType" : 5126,
            "count" : 24,
            "type" : "VEC2"
        },
        {
            "bufferView" : 2,
            "componentType" : 5126,
            "count" : 24,
            "type" : "VEC3"
        },
        {
            "bufferView" : 3,
            "componentType" : 5123,
            "count" : 36,
            "type" : "SCALAR"
        }
    ],
    "bufferViews" : [
        {
            "buffer" : 0,
            "byteLength" : 288,
            "byteOffset" : 0,
            "target" : 34962
        },
        {
            "buffer" : 0,
            "byteLength" : 192,
            "byteOffset" : 288,
            "target" : 34962
        },
        {
            "buffer" : 0,
            "byteLength" : 288,
            "byteOffset" : 480,
            "target" : 34962
        },
        {
            "buffer" : 0,
            "byteLength" : 72,
            "byteOffset" : 768,
            "target" : 34963
        }
    ],
    "samplers" : [
        {
            "magFilter" : 9729,
            "minFilter" : 9987
        }
    ],
    "buffers" : [
        {
            "byteLength" : 840,
            "uri" : "22_factors.bin"
        }
    ]
}
