{
	"asset":{
		"generator":"Khronos glTF Blender I/O v4.0.7",
		"version":"2.0"
	},
	"extensionsUsed":[
		"EXT_mesh_gpu_instancing"
	],
	"scene":0,
	"scenes":[
		{
			"name":"Scene",
			"nodes":[
				5
			]
		}
	],
	"nodes":[
		{
			"mesh":0,
			"name":"plane"
		},
		{
			"children":[
				0
			],
			"name":"Placement_3",
			"scale":[
				240.00001525878906,
				240,
				240.00001525878906
			]
		},
		{
			"children":[
				1
			],
			"name":"Placement",
			"rotation":[
				0,
				0.3826834559440613,
				0,
				0.9238795638084412
			]
		},
		{
			"extensions":{
				"EXT_mesh_gpu_instancing":{
					"attributes":{
						"TRANSLATION":7,
						"ROTATION":8,
						"SCALE":9
					}
				}
			},
			"mesh":1,
			"name":"teapot",
			"scale":[
				1,
				1.2999999523162842,
				1
			]
		},
		{
			"extensions":{
				"EXT_mesh_gpu_instancing":{
					"attributes":{
						"TRANSLATION":10,
						"ROTATION":11,
						"SCALE":12
					}
				}
			},
			"mesh":1,
			"name":"teapot0"
		},
		{
			"children":[
				2,
				3,
				4
			],
			"name":"teapots_galore_id"
		}
	],
	"materials":[
		{
			"name":"cube_2",
			"pbrMetallicRoughness":{
				"baseColorFactor":[
					0.15800000727176666,
					0.10700000077486038,
					0.09399999678134918,
					1
				],
				"metallicFactor":0.11500000208616257,
				"roughnessFactor":0.13469399511814117
			}
		},
		{
			"name":"cube",
			"pbrMetallicRoughness":{
				"baseColorFactor":[
					0.699999988079071,
					0.699999988079071,
					0.699999988079071,
					1
				],
				"roughnessFactor":0.06319999694824219
			}
		}
	],
	"meshes":[
		{
			"name":"plane",
			"primitives":[
				{
					"attributes":{
						"POSITION":0,
						"NORMAL":1,
						"TEXCOORD_0":2
					},
					"indices":3,
					"material":0
				}
			]
		},
		{
			"name":"teapot",
			"primitives":[
				{
					"attributes":{
						"POSITION":4,
						"NORMAL":5
					},
					"indices":6,
					"material":1
				}
			]
		}
	],
	"accessors":[
		{
			"bufferView":0,
			"componentType":5126,
			"count":4,
			"max":[
				1,
				0,
				1
			],
			"min":[
				-1,
				0,
				-1
			],
			"type":"VEC3"
		},
		{
			"bufferView":1,
			"componentType":5126,
			"count":4,
			"type":"VEC3"
		},
		{
			"bufferView":2,
			"componentType":5126,
			"count":4,
			"type":"VEC2"
		},
		{
			"bufferView":3,
			"componentType":5123,
			"count":6,
			"type":"SCALAR"
		},
		{
			"bufferView":4,
			"componentType":5126,
			"count":2204,
			"max":[
				3.433150053024292,
				3.1500000953674316,
				2
			],
			"min":[
				-3,
				0,
				-2
			],
			"type":"VEC3"
		},
		{
			"bufferView":5,
			"componentType":5126,
			"count":2204,
			"type":"VEC3"
		},
		{
			"bufferView":6,
			"componentType":5123,
			"count":12096,
			"type":"SCALAR"
		},
		{
			"bufferView":7,
			"componentType":5126,
			"count":958,
			"type":"VEC3"
		},
		{
			"bufferView":8,
			"componentType":5126,
			"count":958,
			"type":"VEC4"
		},
		{
			"bufferView":9,
			"componentType":5126,
			"count":958,
			"type":"VEC3"
		},
		{
			"bufferView":10,
			"componentType":5126,
			"count":941,
			"type":"VEC3"
		},
		{
			"bufferView":11,
			"componentType":5126,
			"count":941,
			"type":"VEC4"
		},
		{
			"bufferView":12,
			"componentType":5126,
			"count":941,
			"type":"VEC3"
		}
	],
	"bufferViews":[
		{
			"buffer":0,
			"byteLength":48,
			"byteOffset":0,
			"target":34962
		},
		{
			"buffer":0,
			"byteLength":48,
			"byteOffset":48,
			"target":34962
		},
		{
			"buffer":0,
			"byteLength":32,
			"byteOffset":96,
			"target":34962
		},
		{
			"buffer":0,
			"byteLength":12,
			"byteOffset":128,
			"target":34963
		},
		{
			"buffer":0,
			"byteLength":26448,
			"byteOffset":140,
			"target":34962
		},
		{
			"buffer":0,
			"byteLength":26448,
			"byteOffset":26588,
			"target":34962
		},
		{
			"buffer":0,
			"byteLength":24192,
			"byteOffset":53036,
			"target":34963
		},
		{
			"buffer":0,
			"byteLength":11496,
			"byteOffset":77228
		},
		{
			"buffer":0,
			"byteLength":15328,
			"byteOffset":88724
		},
		{
			"buffer":0,
			"byteLength":11496,
			"byteOffset":104052
		},
		{
			"buffer":0,
			"byteLength":11292,
			"byteOffset":115548
		},
		{
			"buffer":0,
			"byteLength":15056,
			"byteOffset":126840
		},
		{
			"buffer":0,
			"byteLength":11292,
			"byteOffset":141896
		}
	],
	"buffers":[
		{
			"byteLength":153188,
			"uri":"24_gpu_instancing.bin"
		}
	]
}
