{
	"asset":{
		"generator":"Khronos glTF Blender I/O v4.3.32",
		"version":"2.0"
	},
	"scene":0,
	"scenes":[
		{
			"name":"Scene",
			"nodes":[
				0,
				1,
				2,
				3,
				4
			]
		}
	],
	"nodes":[
		{
			"mesh":0,
			"name":"Col_corner"
		},
		{
			"mesh":1,
			"name":"Col_vertex",
			"translation":[
				0,
				0,
				3
			]
		},
		{
			"mesh":2,
			"name":"Col_vertex_edge_only",
			"translation":[
				0,
				0,
				6
			]
		},
		{
			"mesh":3,
			"name":"Col_vertex_only",
			"translation":[
				0,
				0,
				9
			]
		},
		{
			"mesh":4,
			"name":"Col_face_only",
			"translation":[
				0,
				0,
				-3
			]
		}
	],
	"meshes":[
		{
			"name":"Plane",
			"primitives":[
				{
					"attributes":{
						"POSITION":0,
						"NORMAL":1,
						"TEXCOORD_0":2,
						"COLOR_0":3
					},
					"indices":4
				},
				{
					"attributes":{
						"POSITION":5
					},
					"indices":6,
					"mode":1
				},
				{
					"attributes":{
						"POSITION":7
					},
					"mode":0
				}
			]
		},
		{
			"name":"Plane.001",
			"primitives":[
				{
					"attributes":{
						"POSITION":8,
						"NORMAL":9,
						"TEXCOORD_0":10,
						"COLOR_0":11
					},
					"indices":4
				},
				{
					"attributes":{
						"POSITION":12,
						"COLOR_0":13
					},
					"indices":6,
					"mode":1
				},
				{
					"attributes":{
						"POSITION":14,
						"COLOR_0":15
					},
					"mode":0
				}
			]
		},
		{
			"name":"Plane.004",
			"primitives":[
				{
					"attributes":{
						"POSITION":16,
						"COLOR_0":17
					},
					"indices":6,
					"mode":1
				},
				{
					"attributes":{
						"POSITION":18,
						"COLOR_0":19
					},
					"mode":0
				}
			]
		},
		{
			"name":"Plane.005",
			"primitives":[
				{
					"attributes":{
						"POSITION":20,
						"COLOR_0":21
					},
					"mode":0
				}
			]
		},
		{
			"name":"Plane.002",
			"primitives":[
				{
					"attributes":{
						"POSITION":22,
						"NORMAL":23,
						"TEXCOORD_0":24,
						"COLOR_0":25
					},
					"indices":26
				}
			]
		}
	],
	"accessors":[
		{
			"bufferView":0,
			"componentType":5126,
			"count":3,
			"max":[
				1,
				0,
				1
			],
			"min":[
				-1,
				0,
				-1
			],
			"type":"VEC3"
		},
		{
			"bufferView":1,
			"componentType":5126,
			"count":3,
			"type":"VEC3"
		},
		{
			"bufferView":2,
			"componentType":5126,
			"count":3,
			"type":"VEC2"
		},
		{
			"bufferView":3,
			"componentType":5123,
			"count":3,
			"normalized":true,
			"type":"VEC4"
		},
		{
			"bufferView":4,
			"componentType":5123,
			"count":3,
			"type":"SCALAR"
		},
		{
			"bufferView":5,
			"componentType":5126,
			"count":2,
			"max":[
				-2,
				0,
				1
			],
			"min":[
				-2,
				0,
				-1
			],
			"type":"VEC3"
		},
		{
			"bufferView":6,
			"componentType":5123,
			"count":2,
			"type":"SCALAR"
		},
		{
			"bufferView":7,
			"componentType":5126,
			"count":2,
			"max":[
				-3,
				0,
				1
			],
			"min":[
				-3,
				0,
				-1
			],
			"type":"VEC3"
		},
		{
			"bufferView":8,
			"componentType":5126,
			"count":3,
			"max":[
				1,
				0,
				1
			],
			"min":[
				-1,
				0,
				-1
			],
			"type":"VEC3"
		},
		{
			"bufferView":9,
			"componentType":5126,
			"count":3,
			"type":"VEC3"
		},
		{
			"bufferView":10,
			"componentType":5126,
			"count":3,
			"type":"VEC2"
		},
		{
			"bufferView":11,
			"componentType":5123,
			"count":3,
			"normalized":true,
			"type":"VEC4"
		},
		{
			"bufferView":12,
			"componentType":5126,
			"count":2,
			"max":[
				-2,
				0,
				1
			],
			"min":[
				-2,
				0,
				-1
			],
			"type":"VEC3"
		},
		{
			"bufferView":13,
			"componentType":5123,
			"count":2,
			"normalized":true,
			"type":"VEC4"
		},
		{
			"bufferView":14,
			"componentType":5126,
			"count":2,
			"max":[
				-3,
				0,
				1
			],
			"min":[
				-3,
				0,
				-1
			],
			"type":"VEC3"
		},
		{
			"bufferView":15,
			"componentType":5123,
			"count":2,
			"normalized":true,
			"type":"VEC4"
		},
		{
			"bufferView":16,
			"componentType":5126,
			"count":2,
			"max":[
				-2,
				0,
				1
			],
			"min":[
				-2,
				0,
				-1
			],
			"type":"VEC3"
		},
		{
			"bufferView":17,
			"componentType":5126,
			"count":2,
			"type":"VEC3"
		},
		{
			"bufferView":18,
			"componentType":5126,
			"count":2,
			"max":[
				-3,
				0,
				1
			],
			"min":[
				-3,
				0,
				-1
			],
			"type":"VEC3"
		},
		{
			"bufferView":19,
			"componentType":5126,
			"count":2,
			"type":"VEC3"
		},
		{
			"bufferView":20,
			"componentType":5126,
			"count":4,
			"max":[
				-2,
				0,
				1
			],
			"min":[
				-3,
				0,
				-1
			],
			"type":"VEC3"
		},
		{
			"bufferView":21,
			"componentType":5126,
			"count":4,
			"type":"VEC3"
		},
		{
			"bufferView":22,
			"componentType":5126,
			"count":7,
			"max":[
				1,
				0,
				1
			],
			"min":[
				-3,
				0,
				-1
			],
			"type":"VEC3"
		},
		{
			"bufferView":23,
			"componentType":5126,
			"count":7,
			"type":"VEC3"
		},
		{
			"bufferView":24,
			"componentType":5126,
			"count":7,
			"type":"VEC2"
		},
		{
			"bufferView":25,
			"componentType":5123,
			"count":7,
			"normalized":true,
			"type":"VEC4"
		},
		{
			"bufferView":26,
			"componentType":5123,
			"count":9,
			"type":"SCALAR"
		}
	],
	"bufferViews":[
		{
			"buffer":0,
			"byteLength":36,
			"byteOffset":0,
			"target":34962
		},
		{
			"buffer":0,
			"byteLength":36,
			"byteOffset":36,
			"target":34962
		},
		{
			"buffer":0,
			"byteLength":24,
			"byteOffset":72,
			"target":34962
		},
		{
			"buffer":0,
			"byteLength":24,
			"byteOffset":96,
			"target":34962
		},
		{
			"buffer":0,
			"byteLength":6,
			"byteOffset":120,
			"target":34963
		},
		{
			"buffer":0,
			"byteLength":24,
			"byteOffset":128,
			"target":34962
		},
		{
			"buffer":0,
			"byteLength":4,
			"byteOffset":152,
			"target":34963
		},
		{
			"buffer":0,
			"byteLength":24,
			"byteOffset":156,
			"target":34962
		},
		{
			"buffer":0,
			"byteLength":36,
			"byteOffset":180,
			"target":34962
		},
		{
			"buffer":0,
			"byteLength":36,
			"byteOffset":216,
			"target":34962
		},
		{
			"buffer":0,
			"byteLength":24,
			"byteOffset":252,
			"target":34962
		},
		{
			"buffer":0,
			"byteLength":24,
			"byteOffset":276,
			"target":34962
		},
		{
			"buffer":0,
			"byteLength":24,
			"byteOffset":300,
			"target":34962
		},
		{
			"buffer":0,
			"byteLength":16,
			"byteOffset":324,
			"target":34962
		},
		{
			"buffer":0,
			"byteLength":24,
			"byteOffset":340,
			"target":34962
		},
		{
			"buffer":0,
			"byteLength":16,
			"byteOffset":364,
			"target":34962
		},
		{
			"buffer":0,
			"byteLength":24,
			"byteOffset":380,
			"target":34962
		},
		{
			"buffer":0,
			"byteLength":24,
			"byteOffset":404,
			"target":34962
		},
		{
			"buffer":0,
			"byteLength":24,
			"byteOffset":428,
			"target":34962
		},
		{
			"buffer":0,
			"byteLength":24,
			"byteOffset":452,
			"target":34962
		},
		{
			"buffer":0,
			"byteLength":48,
			"byteOffset":476,
			"target":34962
		},
		{
			"buffer":0,
			"byteLength":48,
			"byteOffset":524,
			"target":34962
		},
		{
			"buffer":0,
			"byteLength":84,
			"byteOffset":572,
			"target":34962
		},
		{
			"buffer":0,
			"byteLength":84,
			"byteOffset":656,
			"target":34962
		},
		{
			"buffer":0,
			"byteLength":56,
			"byteOffset":740,
			"target":34962
		},
		{
			"buffer":0,
			"byteLength":56,
			"byteOffset":796,
			"target":34962
		},
		{
			"buffer":0,
			"byteLength":18,
			"byteOffset":852,
			"target":34963
		}
	],
	"buffers":[
		{
			"byteLength":872,
			"uri":"22_vertex_color.bin"
		}
	]
}
