{
    "accessors" : [
        {
            "bufferView" : 0,
            "componentType" : 5123,
            "count" : 2880,
            "max" : [
                560
            ],
            "min" : [
                0
            ],
            "type" : "SCALAR"
        },
        {
            "bufferView" : 1,
            "componentType" : 5126,
            "count" : 561,
            "max" : [
                1.000000238418579,
                1,
                1.0000003576278687
            ],
            "min" : [
                -0.9999998211860657,
                -1,
                -0.9999991655349731
            ],
            "type" : "VEC3"
        },
        {
            "bufferView" : 2,
            "componentType" : 5126,
            "count" : 561,
            "max" : [
                1,
                1,
                1
            ],
            "min" : [
                -1,
                -1,
                -1
            ],
            "type" : "VEC3"
        },
        {
            "bufferView" : 3,
            "componentType" : 5126,
            "count" : 561,
            "max" : [
                1,
                1,
                0.9795973300933838,
                1
            ],
            "min" : [
                -0.9769968390464783,
                0,
                -0.9795973896980286,
                -1
            ],
            "type" : "VEC4"
        },
        {
            "bufferView" : 4,
            "componentType" : 5126,
            "count" : 561,
            "max" : [
                1,
                1
            ],
            "min" : [
                0,
                0
            ],
            "type" : "VEC2"
        }
    ],
    "asset" : {
        "generator" : "Julien Duroure, mostly manually",
        "version" : "2.0"
    },
    "bufferViews" : [
        {
            "buffer" : 0,
            "byteLength" : 5760,
            "byteOffset" : 0,
            "target" : 34963
        },
        {
            "buffer" : 0,
            "byteLength" : 6732,
            "byteOffset" : 5760,
            "target" : 34962
        },
        {
            "buffer" : 0,
            "byteLength" : 6732,
            "byteOffset" : 12492,
            "target" : 34962
        },
        {
            "buffer" : 0,
            "byteLength" : 8976,
            "byteOffset" : 19224,
            "target" : 34962
        },
        {
            "buffer" : 0,
            "byteLength" : 4488,
            "byteOffset" : 28200,
            "target" : 34962
        }
    ],
    "buffers" : [
        {
            "byteLength" : 32688,
            "uri" : "15_transmission.bin"
        }
    ],
    "extensions" : {},
    "extensionsRequired" : [
        "KHR_materials_transmission"
    ],
    "extensionsUsed" : [
        "KHR_materials_transmission"
    ],
    "materials" : [
        {
            "pbrMetallicRoughness": {},
            "name" : "pbr"
        },
        {
            "pbrMetallicRoughness": {},
            "extensions": {
                "KHR_materials_transmission": { "transmissionFactor": 0.8 }
            },
            "name" : "transmissionFactor"
        },
        {
            "pbrMetallicRoughness": {},
            "extensions": {
                "KHR_materials_transmission": { "transmissionFactor": 1.0, "transmissionTexture": {"index": 0 } }
            },
            "name" : "transmissionTexture"
        },
        {
            "pbrMetallicRoughness": {},
            "extensions": {
                "KHR_materials_transmission": { "transmissionFactor": 0.7, "transmissionTexture": {"index": 0 } }
            },
            "name" : "transmissionFactorTexture"
        },
        {
            "pbrMetallicRoughness": {},
            "extensions": {
                "KHR_materials_transmission": { "transmissionTexture": {"index": 0 } }
            },
            "name" : "transmissionTextureNoFactor"
        }
    ],
    "meshes" : [
        {
            "name" : "pbr",
            "primitives" : [
                {
                    "attributes" : {
                        "NORMAL" : 2,
                        "POSITION" : 1,
                        "TANGENT" : 3,
                        "TEXCOORD_0" : 4
                    },
                    "indices" : 0,
                    "material" : 0
                }
            ]
        },
        {
            "name" : "transmissionFactor",
            "primitives" : [
                {
                    "attributes" : {
                        "NORMAL" : 2,
                        "POSITION" : 1,
                        "TANGENT" : 3,
                        "TEXCOORD_0" : 4
                    },
                    "indices" : 0,
                    "material" : 1
                }
            ]
        },
        {
            "name" : "transmissionTexture",
            "primitives" : [
                {
                    "attributes" : {
                        "NORMAL" : 2,
                        "POSITION" : 1,
                        "TANGENT" : 3,
                        "TEXCOORD_0" : 4
                    },
                    "indices" : 0,
                    "material" : 2
                }
            ]
        },
        {
            "name" : "transmissionFactorTexture",
            "primitives" : [
                {
                    "attributes" : {
                        "NORMAL" : 2,
                        "POSITION" : 1,
                        "TANGENT" : 3,
                        "TEXCOORD_0" : 4
                    },
                    "indices" : 0,
                    "material" : 3
                }
            ]
        },
        {
            "name" : "transmissionTextureNoFactor",
            "primitives" : [
                {
                    "attributes" : {
                        "NORMAL" : 2,
                        "POSITION" : 1,
                        "TANGENT" : 3,
                        "TEXCOORD_0" : 4
                    },
                    "indices" : 0,
                    "material" : 4
                }
            ]
        }
    ],
    "nodes" : [
        {
            "mesh" : 0,
            "name" : "pbr"
        },
        {
            "mesh" : 1,
            "name" : "transmissionFactor",
            "translation": [2, 0, 0]
        },
        {
            "mesh" : 2,
            "name" : "transmissionTexture",
            "translation": [4, 0, 0]
        },
        {
            "mesh" : 3,
            "name" : "transmissionFactorexture",
            "translation": [6, 0, 0]
        },
        {
            "mesh" : 4,
            "name" : "transmissionTextureNoFactor",
            "translation": [8, 0, 0]
        }
    ],
    "scene" : 0,
    "scenes" : [
        {
            "name" : "Scene",
            "nodes" : [
                0, 1, 2, 3, 4
            ]
        }
    ],
    "textures": [
        {
            "source" : 0
        }
    ],
    "images": [
        {"uri": "15_transmission.png"}
    ]
}
